# Made in Blockbench 4.12.3
mtllib ostrich.mtl

o Body
v 0.125 0.375 0.125
v 0.125 0.375 -0.125
v 0.125 0.1875 0.125
v 0.125 0.1875 -0.125
v -0.125 0.375 -0.125
v -0.125 0.375 0.125
v -0.125 0.1875 -0.125
v -0.125 0.1875 0.125
vt 0.28125 0.84375
vt 0.40625 0.84375
vt 0.40625 0.75
vt 0.28125 0.75
vt 0.28125 0.71875
vt 0.40625 0.71875
vt 0.40625 0.625
vt 0.28125 0.625
vt 0.125 0.65625
vt 0.25 0.65625
vt 0.25 0.5625
vt 0.125 0.5625
vt 0.40625 1
vt 0.53125 1
vt 0.53125 0.90625
vt 0.40625 0.90625
vt 0.25 0.6875
vt 0.125 0.6875
vt 0.125 0.8125
vt 0.25 0.8125
vt 0.375 1
vt 0.25 1
vt 0.25 0.875
vt 0.375 0.875
vn 0 0 -1
vn 1 0 0
vn 0 0 1
vn -1 0 0
vn 0 1 0
vn 0 -1 0
usemtl m_bbe9e195-548a-bfce-bcd5-9857b9c688f5
f 4/4/1 7/3/1 5/2/1 2/1/1
f 3/8/2 4/7/2 2/6/2 1/5/2
f 8/12/3 3/11/3 1/10/3 6/9/3
f 7/16/4 8/15/4 6/14/4 5/13/4
f 6/20/5 1/19/5 2/18/5 5/17/5
f 7/24/6 4/23/6 3/22/6 8/21/6
o Tail
v 0.03125 0.42856864245151055 0.21407451137720074
v 0.03125 0.4666162317645556 0.16448992760899855
v 0.03125 0.23023030737870176 0.061884154125020595
v 0.03125 0.2682778966917468 0.012299570356818411
v -0.03125 0.4666162317645556 0.16448992760899855
v -0.03125 0.42856864245151055 0.21407451137720074
v -0.03125 0.2682778966917468 0.012299570356818411
v -0.03125 0.23023030737870176 0.061884154125020595
vt 0.28125 0.40625
vt 0.3125 0.40625
vt 0.3125 0.28125
vt 0.28125 0.28125
vt 0.34375 0.40625
vt 0.375 0.40625
vt 0.375 0.28125
vt 0.34375 0.28125
vt 0.40625 0.40625
vt 0.4375 0.40625
vt 0.4375 0.28125
vt 0.40625 0.28125
vt 0.46875 0.40625
vt 0.5 0.40625
vt 0.5 0.28125
vt 0.46875 0.28125
vt 0.875 0.90625
vt 0.84375 0.90625
vt 0.84375 0.9375
vt 0.875 0.9375
vt 0.1875 0.15625
vt 0.15625 0.15625
vt 0.15625 0.125
vt 0.1875 0.125
vn 0 0.6087614290087207 -0.7933533402912352
vn 1 0 0
vn 0 -0.6087614290087207 0.7933533402912352
vn -1 0 0
vn 0 0.7933533402912352 0.6087614290087207
vn 0 -0.7933533402912352 -0.6087614290087207
usemtl m_bbe9e195-548a-bfce-bcd5-9857b9c688f5
f 12/28/7 15/27/7 13/26/7 10/25/7
f 11/32/8 12/31/8 10/30/8 9/29/8
f 16/36/9 11/35/9 9/34/9 14/33/9
f 15/40/10 16/39/10 14/38/10 13/37/10
f 14/44/11 9/43/11 10/42/11 13/41/11
f 15/48/12 12/47/12 11/46/12 16/45/12
o Beak
v 0.0625 0.5625 -0.1875
v 0.0625 0.515625 -0.265625
v 0.0625 0.5 -0.1875
v 0.0625 0.5 -0.265625
v -0.0625 0.5625 -0.1875
v -0.0625 0.515625 -0.265625
v -0.0625 0.5 -0.1875
v -0.0625 0.5 -0.265625
vt 0.25 0.125
vt 0.25 0.1328125
vt 0.21875 0.15625
vt 0.21875 0.125
vt 0.3125 0.125
vt 0.3125 0.15625
vt 0.28125 0.1328125
vt 0.28125 0.125
vt 0.71875 0.21875
vt 0.71875 0.1875
vt 0.78125 0.1875
vt 0.78125 0.21875
vt 0.84375 0.4375
vt 0.84375 0.46875
vt 0.78125 0.46875
vt 0.78125 0.4375
vt 0.84375 0.375
vt 0.84375 0.40625
vt 0.78125 0.40625
vt 0.78125 0.375
vt 0.84375 0.3125
vt 0.84375 0.34375
vt 0.78125 0.34375
vt 0.78125 0.3125
vn 1 0 0
vn -1 0 0
vn 0 0.8574929257125443 -0.5144957554275266
vn 0 -1 0
vn 0 0 1
vn 0 0 -1
usemtl m_bbe9e195-548a-bfce-bcd5-9857b9c688f5
f 20/49/13 18/50/13 17/51/13 19/52/13
f 23/53/14 21/54/14 22/55/14 24/56/14
f 17/57/15 18/58/15 22/59/15 21/60/15
f 20/61/16 19/62/16 23/63/16 24/64/16
f 19/65/17 17/66/17 21/67/17 23/68/17
f 24/69/18 22/70/18 18/71/18 20/72/18
o Neck
v 0.09375 0.625 -0.0625
v 0.0625 0.3125 -0.0625
v 0.0625 0.3125 -0.125
v -0.09375 0.625 -0.0625
v -0.09375 0.625 -0.1875
v -0.0625 0.3125 -0.0625
v -0.0625 0.3125 -0.125
v -0.0625 0.375 -0.09375
v -0.0625 0.375 -0.1875
v -0.0625 0.4375 -0.09375
v -0.0625 0.4375 -0.1875
v -0.0625 0.5 -0.09375
v -0.0625 0.5 -0.1875
v -0.09375 0.5625 -0.0625
v -0.09375 0.5625 -0.1875
v 0.0625 0.375 -0.1875
v 0.0625 0.4375 -0.1875
v 0.0625 0.5 -0.1875
v 0.09375 0.5625 -0.1875
v 0.0625 0.375 -0.09375
v 0.0625 0.4375 -0.09375
v 0.0625 0.5 -0.09375
v 0.09375 0.5625 -0.0625
v 0.03125 0.6875 -0.0625
v -0.03125 0.6875 -0.1875
v -0.03125 0.6875 -0.0625
v 0.03125 0.5625 -0.0625
v -0.03125 0.5625 -0.0625
v 0.020833125 0.5 -0.09375
v -0.020833124999999994 0.5 -0.09375
v 0.020833125 0.4375 -0.09375
v -0.020833124999999994 0.4375 -0.09375
v 0.020833125 0.375 -0.09375
v -0.020833124999999994 0.375 -0.09375
v 0.020833125 0.3125 -0.0625
v -0.020833124999999994 0.3125 -0.0625
v 0.020833125 0.3125 -0.125
v -0.020833124999999994 0.3125 -0.125
v 0.020833125 0.375 -0.1875
v -0.020833124999999994 0.375 -0.1875
v 0.020833125 0.4375 -0.1875
v -0.020833124999999994 0.4375 -0.1875
v 0.020833125 0.5 -0.1875
v -0.020833124999999994 0.5 -0.1875
v 0.03125 0.5625 -0.1875
v -0.03125 0.5625 -0.1875
v 0.03125 0.625 -0.1875
v 0.09375 0.59375 -0.0625
v 0.03125 0.625 -0.0625
v -0.03125 0.625 -0.0625
v -0.09375 0.59375 -0.0625
v -0.09375 0.625 -0.1875
v -0.03125 0.625 -0.1875
v 0.03125 0.6875 -0.1875
v 0.09375 0.625 -0.1875
vt 0.8125 0.875
vt 0.875 0.875
vt 0.875 0.859375
vt 0 1
vt 0 0.9375
vt 0 1
vt 0.125 0.21875
vt 0.125 0.25
vt 0.0625 0.25
vt 0.0625 0.21875
vt 0.71875 0.25
vt 0.739584375 0.25
vt 0.739584375 0.28125
vt 0.71875 0.28125
vt 0 0.78125
vt 0 0.765625
vt 0.03125 0.78125
vt 0.03125 0.8125
vt 0.125 1
vt 0.125 0.96875
vt 0.15625 0.96875
vt 0.34375 0.46505937500000005
vt 0.328125 0.49630937500000005
vt 0.28125 0.49630937500000005
vt 0.3125 0.46505937500000005
vt 0.328125 0.49630937500000005
vt 0.328125 0.527559375
vt 0.28125 0.527559375
vt 0.28125 0.49630937500000005
vt 0.328125 0.527559375
vt 0.328125 0.558809375
vt 0.28125 0.558809375
vt 0.28125 0.527559375
vt 0.328125 0.558809375
vt 0.34375 0.59375
vt 0.28125 0.59375
vt 0.28125 0.558809375
vt 0.25 0.29419375000000003
vt 0.22916562499999998 0.29419375000000003
vt 0.22916562499999998 0.25
vt 0.25 0.25
vt 0.140625 0.875
vt 0.119790625 0.875
vt 0.119790625 0.84375
vt 0.140625 0.84375
vt 0.140625 0.90625
vt 0.119790625 0.90625
vt 0.119790625 0.875
vt 0.140625 0.875
vt 0.15625 0.9375
vt 0.125 0.9375
vt 0.119790625 0.90625
vt 0.140625 0.90625
vt 0.40625 0.46506249999999993
vt 0.4375 0.49631249999999993
vt 0.390625 0.49631249999999993
vt 0.375 0.46506249999999993
vt 0.4375 0.49631249999999993
vt 0.4375 0.5275624999999999
vt 0.390625 0.5275624999999999
vt 0.390625 0.49631249999999993
vt 0.4375 0.5275624999999999
vt 0.4375 0.5588124999999999
vt 0.390625 0.5588124999999999
vt 0.390625 0.5275624999999999
vt 0.4375 0.5588124999999999
vt 0.4375 0.59375
vt 0.375 0.59375
vt 0.390625 0.5588124999999999
vt 0.015625 0.617621875
vt 0.036459375 0.617621875
vt 0.036459375 0.6525624999999999
vt 0.015625 0.6525624999999999
vt 0.015625 0.6525624999999999
vt 0.036459375 0.6525624999999999
vt 0.036459375 0.6838124999999999
vt 0.015625 0.6838124999999999
vt 0.015625 0.6838124999999999
vt 0.036459375 0.6838124999999999
vt 0.036459375 0.7150624999999999
vt 0.015625 0.7150624999999999
vt 0.015625 0.7150624999999999
vt 0.036459375 0.7150624999999999
vt 0.03125 0.75
vt 0 0.75
vt 0.8125 0.90625
vt 0.8125 0.9375
vt 0.75 0.9375
vt 0.75 0.90625
vt 0.03125 0.25
vt 0 0.25
vt 0 0.1875
vt 0.03125 0.1875
vt 0.0625 0.8125
vt 0.0625 0.78125
vt 0.09375 0.765625
vt 0.09375 0.78125
vt 0.03125 0.8125
vt 0.03125 0.78125
vt 0.0625 0.78125
vt 0.0625 0.8125
vt 0.09375 0.75
vt 0.0625 0.75
vt 0.057290625 0.7150624999999999
vt 0.078125 0.7150624999999999
vt 0.0625 0.75
vt 0.03125 0.75
vt 0.036459375 0.7150624999999999
vt 0.057290625 0.7150624999999999
vt 0.078125 0.7150624999999999
vt 0.057290625 0.7150624999999999
vt 0.057290625 0.6838124999999999
vt 0.078125 0.6838124999999999
vt 0.057290625 0.7150624999999999
vt 0.036459375 0.7150624999999999
vt 0.036459375 0.6838124999999999
vt 0.057290625 0.6838124999999999
vt 0.078125 0.6838124999999999
vt 0.057290625 0.6838124999999999
vt 0.057290625 0.6525624999999999
vt 0.078125 0.6525624999999999
vt 0.057290625 0.6838124999999999
vt 0.036459375 0.6838124999999999
vt 0.036459375 0.6525624999999999
vt 0.057290625 0.6525624999999999
vt 0.078125 0.6525624999999999
vt 0.057290625 0.6525624999999999
vt 0.057290625 0.617621875
vt 0.078125 0.617621875
vt 0.057290625 0.6525624999999999
vt 0.036459375 0.6525624999999999
vt 0.036459375 0.617621875
vt 0.057290625 0.617621875
vt 0.78125 0.28125
vt 0.760415625 0.28125
vt 0.760415625 0.25
vt 0.78125 0.25
vt 0.760415625 0.28125
vt 0.739584375 0.28125
vt 0.739584375 0.25
vt 0.760415625 0.25
vt 0.1875 0.25
vt 0.208334375 0.25
vt 0.208334375 0.29419375000000003
vt 0.1875 0.29419375000000003
vt 0.208334375 0.25
vt 0.22916562499999998 0.25
vt 0.22916562499999998 0.29419375000000003
vt 0.208334375 0.29419375000000003
vt 0.078125 0.84375
vt 0.098959375 0.84375
vt 0.098959375 0.875
vt 0.078125 0.875
vt 0.098959375 0.84375
vt 0.119790625 0.84375
vt 0.119790625 0.875
vt 0.098959375 0.875
vt 0.078125 0.875
vt 0.098959375 0.875
vt 0.098959375 0.90625
vt 0.078125 0.90625
vt 0.098959375 0.875
vt 0.119790625 0.875
vt 0.119790625 0.90625
vt 0.098959375 0.90625
vt 0.078125 0.90625
vt 0.098959375 0.90625
vt 0.09375 0.9375
vt 0.0625 0.9375
vt 0.098959375 0.90625
vt 0.119790625 0.90625
vt 0.125 0.9375
vt 0.09375 0.9375
vt 0.09375 1
vt 0.09375 0.96875
vt 0.125 0.96875
vt 0.125 1
vt 0.09375 0.9375
vt 0.09375 0.96875
vt 0.0625 0.96875
vt 0.0625 0.9375
vt 0.0625 0.9375
vt 0.0625 0.96875
vt 0 0.953125
vt 0 0.9375
vt 0.09375 0.75
vt 0.09375 0.765625
vt 0.0625 0.78125
vt 0.0625 0.75
vt 0.0625 0.75
vt 0.0625 0.78125
vt 0.03125 0.78125
vt 0.03125 0.75
vt 0.03125 0.75
vt 0.03125 0.78125
vt 0 0.765625
vt 0 0.75
vt 0.21875 0.9375
vt 0.21875 0.953125
vt 0.15625 0.96875
vt 0.15625 0.9375
vt 0.15625 0.9375
vt 0.15625 0.96875
vt 0.125 0.96875
vt 0.125 0.9375
vt 0.125 0.9375
vt 0.125 0.96875
vt 0.09375 0.96875
vt 0.09375 0.9375
vt 0.8125 0.8125
vt 0.875 0.796875
vt 0.875 0.8125
vt 0 1
vt 0.03125 1
vt 0 1
vt 0.03125 0.84375
vt 0 0.84375
vt 0 0.875
vn 1 0 0
vn 0 0 0
vn -0.7071067811865476 0.7071067811865476 0
vn 0 -1 0
vn 0 0 1
vn 0 0 -1
vn -1 0 0
vn -1 0 0
vn -1 0 0
vn -0.8944271909999161 -0.44721359549995804 0
vn 0 -0.7071067811865476 -0.7071067811865476
vn 0 0 -1
vn 0 0 -1
vn 0 0 -1
vn 1 0 0
vn 1 0 0
vn 1 0 0
vn 0.8944271909999161 -0.44721359549995804 0
vn 0 0.44721359549995804 0.8944271909999161
vn 0 0 1
vn 0 0 1
vn 0 -0.44721359549995804 0.8944271909999161
vn 0.7071067811865476 0.7071067811865476 0
vn 0 1 0
vn 0 0 1
vn 0 0 1
vn 0 -0.44721359549995804 0.8944271909999161
vn 0 -0.44721359549995804 0.8944271909999161
vn 0 0 1
vn 0 0 1
vn 0 0 1
vn 0 0 1
vn 0 0.44721359549995804 0.8944271909999161
vn 0 0.447213595499958 0.894427190999916
vn 0 -1 0
vn 0 -1 0
vn 0 -0.7071067811865476 -0.7071067811865476
vn 0 -0.7071067811865476 -0.7071067811865476
vn 0 0 -1
vn 0 0 -1
vn 0 0 -1
vn 0 0 -1
vn 0 0 -1
vn 0 0 -1
vn 0 0 -1
vn 0 0 -1
vn 1 0 0
vn 0 0 1
vn 0 0 1
vn 0 0 1
vn -1 0 0
vn 0 0 -1
vn 0 0 -1
vn -1 0 0
vn 0 0 0
vn 0 0 -1
usemtl m_bbe9e195-548a-bfce-bcd5-9857b9c688f5
f 79/73/19 25/74/19 72/75/19
f 29/76/20 75/77/20 76/78/20
f 28/79/21 50/80/21 49/81/21 29/82/21
f 31/83/22 62/84/22 60/85/22 30/86/22
f 28/87/23 75/88/23 74/89/23 50/90/23
f 49/91/24 77/92/24 29/93/24
f 30/94/25 32/95/25 33/96/25 31/97/25
f 32/98/26 34/99/26 35/100/26 33/101/26
f 34/102/27 36/103/27 37/104/27 35/105/27
f 36/106/28 38/107/28 39/108/28 37/109/28
f 33/110/29 64/111/29 62/112/29 31/113/29
f 35/114/30 66/115/30 64/116/30 33/117/30
f 37/118/31 68/119/31 66/120/31 35/121/31
f 39/122/32 70/123/32 68/124/32 37/125/32
f 27/126/33 40/127/33 44/128/33 26/129/33
f 40/130/34 41/131/34 45/132/34 44/133/34
f 41/134/35 42/135/35 46/136/35 45/137/35
f 42/138/36 43/139/36 47/140/36 46/141/36
f 30/142/37 60/143/37 58/144/37 32/145/37
f 32/146/38 58/147/38 56/148/38 34/149/38
f 34/150/39 56/151/39 54/152/39 36/153/39
f 36/154/40 54/155/40 52/156/40 38/157/40
f 79/158/41 78/159/41 48/160/41 25/161/41
f 78/162/42 49/163/42 50/164/42 48/165/42
f 48/166/43 73/167/43 72/168/43 25/169/43
f 50/170/44 74/171/44 73/172/44 48/173/44
f 47/174/45 51/175/45 53/176/45 46/177/45
f 51/178/46 52/179/46 54/180/46 53/181/46
f 46/182/47 53/183/47 55/184/47 45/185/47
f 53/186/48 54/187/48 56/188/48 55/189/48
f 45/190/49 55/191/49 57/192/49 44/193/49
f 55/194/50 56/195/50 58/196/50 57/197/50
f 44/198/51 57/199/51 59/200/51 26/201/51
f 57/202/52 58/203/52 60/204/52 59/205/52
f 26/206/53 59/207/53 61/208/53 27/209/53
f 59/210/54 60/211/54 62/212/54 61/213/54
f 27/214/55 61/215/55 63/216/55 40/217/55
f 61/218/56 62/219/56 64/220/56 63/221/56
f 40/222/57 63/223/57 65/224/57 41/225/57
f 63/226/58 64/227/58 66/228/58 65/229/58
f 41/230/59 65/231/59 67/232/59 42/233/59
f 65/234/60 66/235/60 68/236/60 67/237/60
f 42/238/61 67/239/61 69/240/61 43/241/61
f 67/242/62 68/243/62 70/244/62 69/245/62
f 78/246/63 71/247/63 77/248/63 49/249/63
f 69/250/64 71/251/64 79/252/64 43/253/64
f 43/254/65 79/255/65 72/256/65 47/257/65
f 47/258/66 72/259/66 73/260/66 51/261/66
f 51/262/67 73/263/67 74/264/67 52/265/67
f 52/266/68 74/267/68 75/268/68 38/269/68
f 38/270/69 75/271/69 76/272/69 39/273/69
f 39/274/70 76/275/70 77/276/70 70/277/70
f 70/278/71 77/279/71 71/280/71 69/281/71
f 29/282/72 75/283/72 28/284/72
f 76/285/73 77/286/73 29/287/73
f 79/288/74 71/289/74 78/290/74
o left wing
v -0.062499999999999986 0.296875 0.0625
v -0.062499999999999986 0.296875 -0.125
v -0.18749999999999997 0.234375 0
v -0.18749999999999997 0.234375 -0.125
v -0.0625 0.359375 0.0625
v -0.0625 0.359375 -0.125
v -0.1875 0.296875 0
v -0.1875 0.296875 -0.125
v -0.12499999999999999 0.296875 0.0625
v -0.125 0.359375 0.0625
v -0.125 0.359375 -0.125
v -0.12499999999999999 0.296875 -0.125
vt 0 0.375
vt 0 0.34375
vt 0.09375 0.34375
vt 0.09375 0.375
vt 0.625 0.90625
vt 0.625 0.875
vt 0.71875 0.875
vt 0.71875 0.90625
vt 0.15625 0.28125
vt 0.15625 0.375
vt 0.125 0.375
vt 0.125 0.28125
vt 0.78125 0.8125
vt 0.78125 0.875
vt 0.75 0.875
vt 0.75 0.8125
vt 0.1875 0.875
vt 0.1875 0.84375
vt 0.21875 0.84375
vt 0.21875 0.875
vt 0.59375 1
vt 0.59375 0.96875
vt 0.625 0.96875
vt 0.625 1
vt 0.6875 0.1875
vt 0.6875 0.24162624168610358
vt 0.65625 0.25966855294915814
vt 0.65625 0.20554231126305456
vt 0.6875 0.8125
vt 0.71875 0.84375
vt 0.625 0.84375
vt 0.625 0.8125
vt 0.59375 0.9375
vt 0.625 0.96875
vt 0.59375 0.96875
vt 0.5625 0.9375
vt 0.71875 0.75
vt 0.71875 0.78125
vt 0.625 0.78125
vt 0.65625 0.75
vn 2.220446049250313e-16 -1 0
vn -2.220446049250313e-16 1 0
vn 1 2.220446049250313e-16 0
vn -1 -2.220446049250313e-16 0
vn 0 0 1
vn 0 0 -1
vn -0.7071067811865476 -1.5700924586837752e-16 0.7071067811865476
vn -0.7071067811865477 0.7071067811865475 0
vn 0 0 -1
vn 0.7071067811865477 -0.7071067811865475 0
usemtl m_bbe9e195-548a-bfce-bcd5-9857b9c688f5
f 80/291/75 88/292/75 91/293/75 81/294/75
f 85/295/76 90/296/76 89/297/76 84/298/76
f 80/299/77 81/300/77 85/301/77 84/302/77
f 83/303/78 82/304/78 86/305/78 87/306/78
f 84/307/79 89/308/79 88/309/79 80/310/79
f 81/311/80 91/312/80 90/313/80 85/314/80
f 82/315/81 88/316/81 89/317/81 86/318/81
f 86/319/82 89/320/82 90/321/82 87/322/82
f 87/323/83 90/324/83 91/325/83 83/326/83
f 83/327/84 91/328/84 88/329/84 82/330/84
o right wing
v 0.062499999999999986 0.296875 0.0625
v 0.062499999999999986 0.296875 -0.125
v 0.18749999999999997 0.234375 0
v 0.18749999999999997 0.234375 -0.125
v 0.0625 0.359375 0.0625
v 0.0625 0.359375 -0.125
v 0.1875 0.296875 0
v 0.1875 0.296875 -0.125
v 0.12499999999999999 0.296875 0.0625
v 0.125 0.359375 0.0625
v 0.125 0.359375 -0.125
v 0.12499999999999999 0.296875 -0.125
vt 0.625 0.6875
vt 0.71875 0.6875
vt 0.71875 0.71875
vt 0.625 0.71875
vt 0.65625 0.96875
vt 0.75 0.96875
vt 0.75 1
vt 0.65625 1
vt 0.6875 0.65625
vt 0.65625 0.65625
vt 0.65625 0.5625
vt 0.6875 0.5625
vt 0.78125 0.78125
vt 0.75 0.78125
vt 0.75 0.71875
vt 0.78125 0.71875
vt 0.8125 0.71875
vt 0.84375 0.71875
vt 0.84375 0.75
vt 0.8125 0.75
vt 0.1875 0.375
vt 0.21875 0.375
vt 0.21875 0.40625
vt 0.1875 0.40625
vt 0.8017092764745791 0.5625
vt 0.7836669652115245 0.59375
vt 0.7295407235254209 0.59375
vt 0.7475830347884754 0.5625
vt 0.75 0.53125
vt 0.65625 0.53125
vt 0.6875 0.5
vt 0.75 0.5
vt 0.21875 0.375
vt 0.1875 0.375
vt 0.21875 0.34375
vt 0.25 0.34375
vt 0.75 0.46875
vt 0.65625 0.46875
vt 0.65625 0.4375
vt 0.71875 0.4375
vn -2.220446049250313e-16 -1 0
vn 2.220446049250313e-16 1 0
vn -1 2.220446049250313e-16 0
vn 1 -2.220446049250313e-16 0
vn 0 0 1
vn 0 0 -1
vn 0.7071067811865476 -1.5700924586837752e-16 0.7071067811865476
vn 0.7071067811865477 0.7071067811865475 0
vn 0 0 -1
vn -0.7071067811865477 -0.7071067811865475 0
usemtl m_bbe9e195-548a-bfce-bcd5-9857b9c688f5
f 103/331/85 100/332/85 92/333/85 93/334/85
f 101/335/86 102/336/86 97/337/86 96/338/86
f 97/339/87 93/340/87 92/341/87 96/342/87
f 98/343/88 94/344/88 95/345/88 99/346/88
f 100/347/89 101/348/89 96/349/89 92/350/89
f 102/351/90 103/352/90 93/353/90 97/354/90
f 101/355/91 100/356/91 94/357/91 98/358/91
f 102/359/92 101/360/92 98/361/92 99/362/92
f 103/363/93 102/364/93 99/365/93 95/366/93
f 100/367/94 103/368/94 95/369/94 94/370/94
o left leg
v -0.0625 0.25 0.0625
v -0.0625 0.25 -0.0625
v -0.0625 0 0.046875
v -0.0625 0 0
v -0.140625 0.25 0.0625
v -0.140625 0.25 -0.0625
v -0.125 0 0.046875
v -0.125 0 0
v -0.125 0.0625 0
v -0.0625 0.0625 0
v -0.125 0.125 0
v -0.0625 0.125 0
v -0.140625 0.1875 -0.0625
v -0.0625 0.1875 -0.0625
v -0.0625 0.0625 0.046875
v -0.0625 0.125 0.0625
v -0.0625 0.1875 0.0625
v -0.125 0.0625 0.046875
v -0.125 0.125 0.0625
v -0.140625 0.1875 0.0625
vt 0.09375 0.53125
vt 0.09375 0.5
vt 0.15625 0.5
vt 0.15625 0.53125
vt 0 0.5625
vt 0 0.53125
vt 0.0625 0.53125
vt 0.0625 0.5625
vt 0.3125 0.1875
vt 0.3125 0.25
vt 0.28125 0.25
vt 0.28125 0.1875
vt 0.5625 0.15625
vt 0.5625 0.1875
vt 0.53125 0.1875
vt 0.53125 0.15625
vt 0.57421875 0.625
vt 0.57421875 0.59375
vt 0.61328125 0.59375
vt 0.61328125 0.625
vt 0.59375 0.1875
vt 0.59375 0.15625
vt 0.625 0.15625
vt 0.625 0.1875
vt 0.375 0.1875
vt 0.375 0.21875
vt 0.34375 0.21875
vt 0.34375 0.1875
vt 0.375 0.21875
vt 0.375 0.25
vt 0.34375 0.25
vt 0.34375 0.21875
vt 0.10546875 0.15625
vt 0.11328125 0.1875
vt 0.07421875 0.1875
vt 0.07421875 0.15625
vt 0.125 0.40625
vt 0.125 0.4375
vt 0.1015625 0.4375
vt 0.1015625 0.40625
vt 0.125 0.4375
vt 0.125 0.46875
vt 0.09375 0.46875
vt 0.1015625 0.4375
vt 0.125 0.46875
vt 0.15625 0.5
vt 0.09375 0.5
vt 0.09375 0.46875
vt 0.61328125 0.4990375
vt 0.61328125 0.5302875
vt 0.58203125 0.5302875
vt 0.58203125 0.4990375
vt 0.61328125 0.5302875
vt 0.61328125 0.5625
vt 0.58203125 0.5625
vt 0.58203125 0.5302875
vt 0.61328125 0.5625
vt 0.61328125 0.59375
vt 0.57421875 0.59375
vt 0.58203125 0.5625
vt 0.0546875 0.4365375
vt 0.0546875 0.4677875
vt 0.03125 0.4677875
vt 0.03125 0.4365375
vt 0.0546875 0.4677875
vt 0.0625 0.4990375
vt 0.03125 0.4990375
vt 0.03125 0.4677875
vt 0.0625 0.4990375
vt 0.0625 0.53125
vt 0 0.53125
vt 0.03125 0.4990375
vn 1 0 0
vn -1 0 0
vn 0 1 0
vn 0 -1 0
vn 0 0 1
vn 0 0 -1
vn 0 0 -1
vn 0 0 -1
vn 0 -0.7071067811865476 -0.7071067811865476
vn 1 0 0
vn 1 0 0
vn 1 0 0
vn 0 0 1
vn 0 -0.24253562503633297 0.9701425001453319
vn 0 0 1
vn -1 0 0
vn -1 0 0
vn -0.9701425001453319 -0.24253562503633297 0
usemtl m_bbe9e195-548a-bfce-bcd5-9857b9c688f5
f 104/371/95 120/372/95 117/373/95 105/374/95
f 109/375/96 116/376/96 123/377/96 108/378/96
f 104/379/97 105/380/97 109/381/97 108/382/97
f 107/383/98 106/384/98 110/385/98 111/386/98
f 108/387/99 123/388/99 120/389/99 104/390/99
f 105/391/100 117/392/100 116/393/100 109/394/100
f 111/395/101 112/396/101 113/397/101 107/398/101
f 112/399/102 114/400/102 115/401/102 113/402/102
f 114/403/103 116/404/103 117/405/103 115/406/103
f 107/407/104 113/408/104 118/409/104 106/410/104
f 113/411/105 115/412/105 119/413/105 118/414/105
f 115/415/106 117/416/106 120/417/106 119/418/106
f 106/419/107 118/420/107 121/421/107 110/422/107
f 118/423/108 119/424/108 122/425/108 121/426/108
f 119/427/109 120/428/109 123/429/109 122/430/109
f 110/431/110 121/432/110 112/433/110 111/434/110
f 121/435/111 122/436/111 114/437/111 112/438/111
f 122/439/112 123/440/112 116/441/112 114/442/112
o right leg
v 0.140625 0.25 0.0625
v 0.140625 0.25 -0.0625
v 0.125 0 0.046875
v 0.125 0 0
v 0.0625 0.25 0.0625
v 0.0625 0.25 -0.0625
v 0.0625 0 0.046875
v 0.0625 0 0
v 0.0625 0.0625 0
v 0.125 0.0625 0
v 0.0625 0.125 0
v 0.125 0.125 0
v 0.0625 0.1875 -0.0625
v 0.140625 0.1875 -0.0625
v 0.125 0.0625 0.046875
v 0.125 0.125 0.0625
v 0.140625 0.1875 0.0625
v 0.0625 0.0625 0.046875
v 0.0625 0.125 0.0625
v 0.0625 0.1875 0.0625
vt 0.4375 0.875
vt 0.4375 0.84375
vt 0.5 0.84375
vt 0.5 0.875
vt 0.4375 0.6875
vt 0.4375 0.65625
vt 0.5 0.65625
vt 0.5 0.6875
vt 0.4375 0.1875
vt 0.4375 0.25
vt 0.40625 0.25
vt 0.40625 0.1875
vt 0.84375 0.25
vt 0.84375 0.28125
vt 0.8125 0.28125
vt 0.8125 0.25
vt 0.57421875 0.4375
vt 0.57421875 0.40625
vt 0.61328125 0.40625
vt 0.61328125 0.4375
vt 0.8125 0.21875
vt 0.8125 0.1875
vt 0.84375 0.1875
vt 0.84375 0.21875
vt 0.5 0.1875
vt 0.5 0.21875
vt 0.46875 0.21875
vt 0.46875 0.1875
vt 0.5 0.21875
vt 0.5 0.25
vt 0.46875 0.25
vt 0.46875 0.21875
vt 0.03125 0.125
vt 0.03125 0.15625
vt 0 0.15625
vt 0.0078125 0.125
vt 0.46875 0.7490375
vt 0.46875 0.7802875
vt 0.4453125 0.7802875
vt 0.4453125 0.7490375
vt 0.46875 0.7802875
vt 0.46875 0.8115375
vt 0.4375 0.8115375
vt 0.4453125 0.7802875
vt 0.46875 0.8115375
vt 0.5 0.84375
vt 0.4375 0.84375
vt 0.4375 0.8115375
vt 0.60546875 0.3115375
vt 0.60546875 0.3427875
vt 0.57421875 0.3427875
vt 0.57421875 0.3115375
vt 0.60546875 0.3427875
vt 0.60546875 0.375
vt 0.57421875 0.375
vt 0.57421875 0.3427875
vt 0.60546875 0.375
vt 0.61328125 0.40625
vt 0.57421875 0.40625
vt 0.57421875 0.375
vt 0.4921875 0.5625
vt 0.4921875 0.59375
vt 0.46875 0.59375
vt 0.46875 0.5625
vt 0.4921875 0.59375
vt 0.5 0.625
vt 0.46875 0.625
vt 0.46875 0.59375
vt 0.5 0.625
vt 0.5 0.65625
vt 0.4375 0.65625
vt 0.46875 0.625
vn 1 0 0
vn -1 0 0
vn 0 1 0
vn 0 -1 0
vn 0 0 1
vn 0 0 -1
vn 0 0 -1
vn 0 0 -1
vn 0 -0.7071067811865476 -0.7071067811865476
vn 1 0 0
vn 1 0 0
vn 0.9701425001453319 -0.24253562503633297 0
vn 0 0 1
vn 0 -0.24253562503633297 0.9701425001453319
vn 0 0 1
vn -1 0 0
vn -1 0 0
vn -1 0 0
usemtl m_bbe9e195-548a-bfce-bcd5-9857b9c688f5
f 124/443/113 140/444/113 137/445/113 125/446/113
f 129/447/114 136/448/114 143/449/114 128/450/114
f 124/451/115 125/452/115 129/453/115 128/454/115
f 127/455/116 126/456/116 130/457/116 131/458/116
f 128/459/117 143/460/117 140/461/117 124/462/117
f 125/463/118 137/464/118 136/465/118 129/466/118
f 131/467/119 132/468/119 133/469/119 127/470/119
f 132/471/120 134/472/120 135/473/120 133/474/120
f 134/475/121 136/476/121 137/477/121 135/478/121
f 127/479/122 133/480/122 138/481/122 126/482/122
f 133/483/123 135/484/123 139/485/123 138/486/123
f 135/487/124 137/488/124 140/489/124 139/490/124
f 126/491/125 138/492/125 141/493/125 130/494/125
f 138/495/126 139/496/126 142/497/126 141/498/126
f 139/499/127 140/500/127 143/501/127 142/502/127
f 130/503/128 141/504/128 132/505/128 131/506/128
f 141/507/129 142/508/129 134/509/129 132/510/129
f 142/511/130 143/512/130 136/513/130 134/514/130
o left foot
v -0.03125 0.0625 0.0625
v -0.03125 0.0625 -0.125
v -0.03125 0 0.0625
v -0.03125 0 -0.125
v -0.15625 0.0625 -0.125
v -0.15625 0.0625 0.0625
v -0.15625 0 -0.125
v -0.15625 0 0.0625
vt 0.53125 0.25
vt 0.59375 0.25
vt 0.59375 0.21875
vt 0.53125 0.21875
vt 0.65625 0.40625
vt 0.75 0.40625
vt 0.75 0.375
vt 0.65625 0.375
vt 0.78125 1
vt 0.84375 1
vt 0.84375 0.96875
vt 0.78125 0.96875
vt 0.65625 0.34375
vt 0.75 0.34375
vt 0.75 0.3125
vt 0.65625 0.3125
vt 0.25 0.4375
vt 0.1875 0.4375
vt 0.1875 0.53125
vt 0.25 0.53125
vt 0.53125 0.53125
vt 0.46875 0.53125
vt 0.46875 0.4375
vt 0.53125 0.4375
vn 0 0 -1
vn 1 0 0
vn 0 0 1
vn -1 0 0
vn 0 1 0
vn 0 -1 0
usemtl m_bbe9e195-548a-bfce-bcd5-9857b9c688f5
f 147/518/131 150/517/131 148/516/131 145/515/131
f 146/522/132 147/521/132 145/520/132 144/519/132
f 151/526/133 146/525/133 144/524/133 149/523/133
f 150/530/134 151/529/134 149/528/134 148/527/134
f 149/534/135 144/533/135 145/532/135 148/531/135
f 150/538/136 147/537/136 146/536/136 151/535/136
o right foot
v 0.15625 0.0625 0.0625
v 0.15625 0.0625 -0.125
v 0.15625 0 0.0625
v 0.15625 0 -0.125
v 0.03125 0.0625 -0.125
v 0.03125 0.0625 0.0625
v 0.03125 0 -0.125
v 0.03125 0 0.0625
vt 0.15625 0.21875
vt 0.21875 0.21875
vt 0.21875 0.1875
vt 0.15625 0.1875
vt 0 0.3125
vt 0.09375 0.3125
vt 0.09375 0.28125
vt 0 0.28125
vt 0.78125 0.53125
vt 0.84375 0.53125
vt 0.84375 0.5
vt 0.78125 0.5
vt 0.71875 0.65625
vt 0.8125 0.65625
vt 0.8125 0.625
vt 0.71875 0.625
vt 0.59375 0.78125
vt 0.53125 0.78125
vt 0.53125 0.875
vt 0.59375 0.875
vt 0.59375 0.75
vt 0.53125 0.75
vt 0.53125 0.65625
vt 0.59375 0.65625
vn 0 0 -1
vn 1 0 0
vn 0 0 1
vn -1 0 0
vn 0 1 0
vn 0 -1 0
usemtl m_bbe9e195-548a-bfce-bcd5-9857b9c688f5
f 155/542/137 158/541/137 156/540/137 153/539/137
f 154/546/138 155/545/138 153/544/138 152/543/138
f 159/550/139 154/549/139 152/548/139 157/547/139
f 158/554/140 159/553/140 157/552/140 156/551/140
f 157/558/141 152/557/141 153/556/141 156/555/141
f 158/562/142 155/561/142 154/560/142 159/559/142